HIERARCHY
ROOT joint_Root
{
	OFFSET 0.0 0.0 0.0
	CHANNELS 6 Xposition Yposition Zposition Zrotation Xrotation Yrotation 
	JOINT Hips
	{
		OFFSET -0.726466 93.3139 -2.00062
		CHANNELS 6 Xposition Yposition Zposition Zrotation Xrotation Yrotation 
		JOINT Spine
		{
			OFFSET 15.7357 0.0 0.0
			CHANNELS 6 Xposition Yposition Zposition Zrotation Xrotation Yrotation 
			JOINT Chest
			{
				OFFSET 8.98455 -0.406207 0.0
				CHANNELS 6 Xposition Yposition Zposition Zrotation Xrotation Yrotation 
				JOINT Neck
				{
					OFFSET 16.3773 0.0 0.0
					CHANNELS 6 Xposition Yposition Zposition Zrotation Xrotation Yrotation 
					JOINT Head
					{
						OFFSET 6.45672 0.0 0.0
						CHANNELS 6 Xposition Yposition Zposition Zrotation Xrotation Yrotation 
						End Site
						{
							OFFSET 0.0 0.0 0.0
						}
					}
				}
				JOINT Shoulder_L
				{
					OFFSET 12.9942 -0.242716 4.98039
					CHANNELS 6 Xposition Yposition Zposition Zrotation Xrotation Yrotation 
					JOINT UpperArm_L
					{
						OFFSET 5.34809 0.0 0.0
						CHANNELS 6 Xposition Yposition Zposition Zrotation Xrotation Yrotation 
						JOINT LowerArm_L
						{
							OFFSET 24.3286 1.87007e-05 0.0
							CHANNELS 6 Xposition Yposition Zposition Zrotation Xrotation Yrotation 
							JOINT Hand_L
							{
								OFFSET 22.2916 0.0 0.0
								CHANNELS 6 Xposition Yposition Zposition Zrotation Xrotation Yrotation 
								End Site
								{
									OFFSET 0.0 0.0 0.0
								}
							}
						}
					}
				}
				JOINT Shoulder_R
				{
					OFFSET 12.9945 -0.242716 -4.98039
					CHANNELS 6 Xposition Yposition Zposition Zrotation Xrotation Yrotation 
					JOINT UpperArm_R
					{
						OFFSET -5.34813 0.0 0.0
						CHANNELS 6 Xposition Yposition Zposition Zrotation Xrotation Yrotation 
						JOINT LowerArm_R
						{
							OFFSET -24.3289 0.000322201 0.0
							CHANNELS 6 Xposition Yposition Zposition Zrotation Xrotation Yrotation 
							JOINT Hand_R
							{
								OFFSET -22.2915 -0.000108084 0.0
								CHANNELS 6 Xposition Yposition Zposition Zrotation Xrotation Yrotation 
								End Site
								{
									OFFSET 0.0 0.0 0.0
								}
							}
						}
					}
				}
			}
		}
		JOINT UpperLeg_L
		{
			OFFSET -2.19248 -6.46944 0.0
			CHANNELS 6 Xposition Yposition Zposition Zrotation Xrotation Yrotation 
			JOINT LowerLeg_L
			{
				OFFSET 39.0811 0.0 -1.23785e-05
				CHANNELS 6 Xposition Yposition Zposition Zrotation Xrotation Yrotation 
				JOINT Foot_L
				{
					OFFSET 40.9854 0.0 -1.26872e-05
					CHANNELS 6 Xposition Yposition Zposition Zrotation Xrotation Yrotation 
					JOINT Toes_L
					{
						OFFSET 11.7543 0.0 0.0
						CHANNELS 6 Xposition Yposition Zposition Zrotation Xrotation Yrotation 
						End Site
						{
							OFFSET 0.0 0.0 0.0
						}
					}
				}
			}
		}
		JOINT UpperLeg_R
		{
			OFFSET -2.19251 6.46944 0.0
			CHANNELS 6 Xposition Yposition Zposition Zrotation Xrotation Yrotation 
			JOINT LowerLeg_R
			{
				OFFSET -39.0811 -0.00228153 -0.0401928
				CHANNELS 6 Xposition Yposition Zposition Zrotation Xrotation Yrotation 
				JOINT Foot_R
				{
					OFFSET -40.9854 0.0 0.0
					CHANNELS 6 Xposition Yposition Zposition Zrotation Xrotation Yrotation 
					JOINT Toes_R
					{
						OFFSET -11.7543 0.0 0.0
						CHANNELS 6 Xposition Yposition Zposition Zrotation Xrotation Yrotation 
						End Site
						{
							OFFSET 0.0 0.0 0.0
						}
					}
				}
			}
		}
	}
}
MOTION
Frames:	6
Frame Time:	0.0333333
0.000000 0.000000 0.000000 0.000000 0.000000 -0.000000 39.114300 90.704400 200.761000 -72.592900 81.450400 169.557000 15.735700 0.000005 -0.000001 80.424700 83.108000 -79.858400 8.984550 -0.406207 -0.000000 5.841140 -2.296510 1.248560 16.377300 -0.000001 -0.000001 5.614300 5.083070 -2.495330 6.456720 -0.000001 -0.000000 0.984991 11.632500 -1.310050 12.994200 -0.242716 4.980390 -88.965000 -2.918100 -70.460700 5.348090 -0.000007 -0.000001 -58.626100 32.515100 -35.676900 24.328600 0.000019 0.000005 -1.204880 -1.093780 -47.767600 22.291600 -0.000001 0.000005 11.395200 5.550510 -8.729610 12.994500 -0.242716 -4.980390 87.926300 5.405480 -68.975000 -5.348130 -0.000001 -0.000004 -76.060100 24.089000 5.308290 -24.328900 0.000322 -0.000009 1.611640 12.492200 -7.416690 -22.291500 -0.000108 -0.000004 9.172370 5.321010 -0.524774 -2.192480 -6.469440 -0.000000 179.311000 -3.887490 3.942630 39.081100 -0.000007 -0.000012 -0.147004 0.301541 25.989900 40.985400 -0.000006 -0.000013 5.171800 0.244864 -73.716500 11.754300 -0.000000 0.000003 -0.000039 -0.000458 -16.595400 -2.192510 6.469440 -0.000001 175.634000 11.327300 163.452000 -39.081100 -0.002282 -0.040193 0.017007 -0.036840 20.380400 -40.985400 0.000008 0.000006 4.207790 -2.960250 -51.880000 -11.754300 -0.000006 -0.000006 -0.024203 -0.189547 -24.326100
0.000000 0.000000 0.000000 0.000000 0.000000 -0.000000 42.025600 90.158500 200.827000 -77.395100 79.962800 173.650000 15.735700 0.000005 -0.000001 79.335800 83.259500 -78.863800 8.984550 -0.406207 -0.000000 5.496640 -2.498230 1.062890 16.377300 -0.000001 -0.000001 5.528270 5.345500 -2.626180 6.456720 -0.000001 -0.000000 0.739363 12.288000 -1.477890 12.994200 -0.242716 4.980390 -89.059800 -2.669390 -70.587800 5.348090 -0.000007 -0.000001 -57.598400 32.118100 -36.255800 24.328600 0.000019 0.000005 -1.503560 -1.277830 -49.648400 22.291600 -0.000001 0.000005 11.672200 5.557130 -9.046670 12.994500 -0.242716 -4.980390 87.983200 5.254150 -68.965900 -5.348130 -0.000001 -0.000004 -76.775700 23.826500 6.254440 -24.328900 0.000322 -0.000009 1.481800 13.232400 -6.452300 -22.291500 -0.000108 -0.000004 8.679230 5.308310 -0.161718 -2.192480 -6.469440 -0.000000 179.829000 -4.111960 5.377160 39.081100 -0.000007 -0.000012 -0.170475 0.349980 25.970900 40.985400 -0.000006 -0.000013 5.198720 2.129900 -75.870100 11.754300 -0.000000 0.000003 -0.000057 -0.000632 -16.602100 -2.192510 6.469440 -0.000001 175.938000 14.016000 163.837000 -39.081100 -0.002282 -0.040193 0.004432 -0.006014 10.303200 -40.985400 0.000008 0.000006 0.899666 2.755800 -54.358900 -11.754300 -0.000006 -0.000006 -0.024979 -0.193451 -24.487500
0.000000 0.000000 0.000000 0.000000 0.000000 -0.000000 45.204000 89.481900 201.029000 -80.494400 78.243800 175.971000 15.735700 0.000005 -0.000001 78.254900 83.438100 -77.845800 8.984550 -0.406207 -0.000000 5.097110 -2.675460 0.936442 16.377300 -0.000001 -0.000001 5.351530 5.571690 -2.716500 6.456720 -0.000001 -0.000000 0.555290 12.686500 -1.731320 12.994200 -0.242716 4.980390 -89.120300 -2.499320 -70.601800 5.348090 -0.000007 -0.000001 -57.240900 32.050500 -36.158300 24.328600 0.000019 0.000005 -1.765130 -1.454760 -50.518400 22.291600 -0.000001 0.000005 12.179900 5.563840 -9.376560 12.994500 -0.242716 -4.980390 87.941900 5.356020 -68.943700 -5.348130 -0.000001 -0.000004 -77.016200 23.266800 6.595960 -24.328900 0.000322 -0.000009 1.367550 13.478900 -5.852160 -22.291500 -0.000108 -0.000004 8.233880 5.295520 0.197908 -2.192480 -6.469440 -0.000000 -179.480000 -3.511570 6.883780 39.081100 -0.000007 -0.000012 -0.206299 0.424413 25.923800 40.985400 -0.000006 -0.000013 4.970260 3.488820 -78.114600 11.754300 -0.000000 0.000003 -0.000050 -0.000566 -16.599500 -2.192510 6.469440 -0.000001 175.859000 16.343600 162.983000 -39.081100 -0.002282 -0.040193 -0.005374 0.077232 6.440880 -40.985400 0.000008 0.000006 -8.887120 8.360170 -55.220300 -11.754300 -0.000006 -0.000006 -0.025056 -0.193837 -24.503500
0.000000 0.000000 0.000000 0.000000 0.000000 -0.000000 48.744500 88.819300 201.420000 -80.476700 76.729500 175.840000 15.735700 0.000005 -0.000001 78.169900 83.410000 -77.687700 8.984550 -0.406207 -0.000000 5.150160 -2.707350 1.085400 16.377300 -0.000001 -0.000001 5.075110 5.957000 -2.655450 6.456720 -0.000001 -0.000000 0.387804 12.981100 -2.089310 12.994200 -0.242716 4.980390 -89.113400 -2.498400 -70.455100 5.348090 -0.000007 -0.000001 -58.294400 31.841300 -34.890000 24.328600 0.000019 0.000005 -1.587960 -1.326800 -50.130400 22.291600 -0.000001 0.000005 12.391600 5.571180 -9.748580 12.994500 -0.242716 -4.980390 87.864600 5.602070 -69.094400 -5.348130 -0.000001 -0.000004 -76.960000 23.654600 6.096870 -24.328900 0.000322 -0.000009 1.260120 12.990600 -5.593380 -22.291500 -0.000108 -0.000004 7.992060 5.288500 0.392442 -2.192480 -6.469440 -0.000000 -178.748000 -2.302080 9.671270 39.081100 -0.000007 -0.000012 -0.008274 0.017680 25.078000 40.985400 -0.000006 -0.000013 7.669600 2.736640 -80.497300 11.754300 -0.000000 0.000003 -0.571578 -0.704677 -16.131300 -2.192510 6.469440 -0.000001 176.466000 15.125500 160.389000 -39.081100 -0.002282 -0.040193 -0.009849 0.065352 11.406600 -40.985400 0.000008 0.000006 -5.205600 7.853230 -57.410200 -11.754300 -0.000006 -0.000006 -0.025475 -0.195921 -24.589700
0.000000 0.000000 0.000000 0.000000 0.000000 -0.000000 52.655500 88.378900 201.970000 -74.847400 74.747300 170.722000 15.735700 0.000005 -0.000001 78.913100 83.214700 -77.823800 8.984550 -0.406207 -0.000000 5.581790 -2.624130 2.304480 16.377300 -0.000001 -0.000001 5.197650 6.022790 -2.873280 6.456720 -0.000001 -0.000000 -0.084907 13.210100 -2.330570 12.994200 -0.242716 4.980390 -89.344800 -1.876400 -70.747600 5.348090 -0.000007 -0.000001 -59.382500 31.547800 -32.698700 24.328600 0.000019 0.000005 -1.672990 -1.475940 -48.597400 22.291600 -0.000001 0.000005 12.452200 5.568150 -9.594130 12.994500 -0.242716 -4.980390 87.651300 6.234080 -69.307700 -5.348130 -0.000001 -0.000004 -76.230500 24.488900 4.663950 -24.328900 0.000322 -0.000009 1.271640 12.715100 -5.763550 -22.291500 -0.000108 -0.000004 8.555140 5.288230 0.399778 -2.192480 -6.469440 -0.000000 -176.030000 -0.302326 10.774500 39.081100 -0.000007 -0.000012 0.002416 -0.004617 27.616800 40.985400 -0.000006 -0.000013 6.831450 3.020270 -79.536700 11.754300 -0.000000 0.000003 -2.051060 -2.439640 -19.491700 -2.192510 6.469440 -0.000001 177.453000 11.970200 158.017000 -39.081100 -0.002282 -0.040193 -0.020145 0.067094 19.278800 -40.985400 0.000008 0.000006 -5.702400 6.072480 -53.038700 -11.754300 -0.000006 -0.000006 -0.030994 -0.221983 -25.669600
0.000000 0.000000 0.000000 0.000000 0.000000 -0.000000 56.958200 88.055400 202.477000 -72.642900 72.116800 168.944000 15.735700 0.000005 -0.000001 78.990100 83.179900 -77.482600 8.984550 -0.406207 -0.000000 5.664220 -2.626290 3.141850 16.377300 -0.000001 -0.000001 5.448390 5.642150 -2.959190 6.456720 -0.000001 -0.000000 -0.143595 13.155800 -2.605630 12.994200 -0.242716 4.980390 -89.591700 -1.201420 -71.229800 5.348090 -0.000007 -0.000001 -60.491100 31.756200 -30.090000 24.328600 0.000019 0.000005 -1.909790 -1.894510 -45.245300 22.291600 -0.000001 0.000005 12.416100 5.569880 -9.682610 12.994500 -0.242716 -4.980390 87.359300 6.893990 -68.981500 -5.348130 -0.000001 -0.000004 -75.288800 25.336900 3.020740 -24.328900 0.000322 -0.000009 1.385490 12.276900 -6.494170 -22.291500 -0.000108 -0.000004 9.068530 5.292970 0.268850 -2.192480 -6.469440 -0.000000 -173.538000 1.584600 10.967100 39.081100 -0.000007 -0.000012 0.002245 -0.003646 31.606700 40.985400 -0.000006 -0.000013 6.395580 3.714950 -77.300200 11.754300 -0.000000 0.000003 -0.085596 -0.223104 -23.038800 -2.192510 6.469440 -0.000001 178.387000 10.355300 157.334000 -39.081100 -0.002282 -0.040193 -0.017512 0.044318 25.167100 -40.985400 0.000008 0.000006 -5.467850 6.335960 -49.676100 -11.754300 -0.000006 -0.000006 -0.033930 -0.234943 -26.208300
